<svg xmlns="http://www.w3.org/2000/svg" xmlns:xlink="http://www.w3.org/1999/xlink" version="1.1" style="shape-rendering:geometricPrecision; text-rendering:geometricPrecision; image-rendering:optimizeQuality; fill-rule:evenodd; clip-rule:evenodd" viewBox="318.5 388.4 443 303.22">
<g><path style="opacity:0.818" fill="#50b1f0" d="M 381.5,388.5 C 393.876,388.157 406.209,388.657 418.5,390C 430.132,392.964 437.966,400.131 442,411.5C 454.667,445.5 467.333,479.5 480,513.5C 480.792,515.587 481.959,517.421 483.5,519C 525.338,519.234 567.172,519.734 609,520.5C 616.787,521.005 624.287,519.838 631.5,517C 634.531,514.441 636.698,511.274 638,507.5C 644.834,486.828 651.668,466.161 658.5,445.5C 661.474,443.822 663.141,444.655 663.5,448C 656.799,470.771 649.299,493.271 641,515.5C 637.822,520.509 633.322,523.676 627.5,525C 578.167,525.667 528.833,525.667 479.5,525C 477.741,523.992 476.574,522.492 476,520.5C 463,485.5 450,450.5 437,415.5C 433.807,405.641 427.307,399.141 417.5,396C 404.88,394.626 392.213,394.126 379.5,394.5C 379.259,392.114 379.925,390.114 381.5,388.5 Z"/></g>
<g><path style="opacity:0.948" fill="#52892c" d="M 532.5,449.5 C 545.311,443.382 550.644,433.215 548.5,419C 528.833,418.333 509.167,418.333 489.5,419C 486.241,420.211 483.408,422.044 481,424.5C 477.63,429.14 475.13,434.14 473.5,439.5C 474.433,428.137 478.766,418.304 486.5,410C 489.339,408.08 492.339,406.413 495.5,405C 524.46,403.374 553.46,403.041 582.5,404C 587.589,419.931 583.589,433.598 570.5,445C 568.112,446.861 565.446,448.194 562.5,449C 552.506,449.5 542.506,449.666 532.5,449.5 Z"/></g>
<g><path style="opacity:1" fill="#9dd349" d="M 532.5,449.5 C 513.497,449.667 494.497,449.5 475.5,449C 473.66,446.174 472.994,443.007 473.5,439.5C 475.13,434.14 477.63,429.14 481,424.5C 483.408,422.044 486.241,420.211 489.5,419C 509.167,418.333 528.833,418.333 548.5,419C 550.644,433.215 545.311,443.382 532.5,449.5 Z"/></g>
<g><path style="opacity:0.973" fill="#9ed549" d="M 475.5,457.5 C 515.168,457.333 554.835,457.5 594.5,458C 614.725,463.955 625.225,477.455 626,498.5C 624.29,501.896 621.457,503.396 617.5,503C 579.486,503.875 541.486,503.542 503.5,502C 481.357,494.779 472.024,479.946 475.5,457.5 Z"/></g>
<g><path style="opacity:0.893" fill="#50b1f0" d="M 350.5,564.5 C 354.306,564.02 357.639,565.02 360.5,567.5C 363.889,565.51 367.556,565.01 371.5,566C 375.613,569.509 376.446,573.676 374,578.5C 369.697,583.424 365.03,583.758 360,579.5C 348.744,584.206 344.077,580.539 346,568.5C 347.397,566.93 348.897,565.596 350.5,564.5 Z"/></g>
<g><path style="opacity:0.872" fill="#50b1f0" d="M 679.5,565.5 C 689.856,564.25 693.69,568.584 691,578.5C 686,583.833 681,583.833 676,578.5C 673.676,573.167 674.843,568.833 679.5,565.5 Z"/></g>
<g><path style="opacity:0.943" fill="#50b1f0" d="M 466.5,567.5 C 472.5,567.5 478.5,567.5 484.5,567.5C 487.167,584.169 489.834,600.836 492.5,617.5C 550.167,617.5 607.833,617.5 665.5,617.5C 663.102,598.916 671.102,588.583 689.5,586.5C 707.94,588.548 715.607,598.715 712.5,617C 714.902,617.814 717.235,617.647 719.5,616.5C 716.177,600.227 713.177,583.894 710.5,567.5C 716.5,567.5 722.5,567.5 728.5,567.5C 732.384,590.135 736.05,612.802 739.5,635.5C 729.115,635.615 718.782,634.948 708.5,633.5C 707.5,632.167 706.5,630.833 705.5,629.5C 700.525,632.991 695.025,634.991 689,635.5C 619.19,634.585 549.024,634.585 478.5,635.5C 474.5,612.833 470.5,590.167 466.5,567.5 Z M 621.5,588.5 C 625.529,588.057 627.529,589.891 627.5,594C 621.611,595.916 619.611,594.082 621.5,588.5 Z M 686.5,603.5 C 695.052,603.543 697.885,607.543 695,615.5C 688.539,619.732 684.039,618.065 681.5,610.5C 682.466,607.531 684.133,605.198 686.5,603.5 Z"/></g>
<g><path style="opacity:0.915" fill="#50b1f0" d="M 732.5,567.5 C 738.5,567.5 744.5,567.5 750.5,567.5C 754.384,590.135 758.05,612.802 761.5,635.5C 755.833,635.5 750.167,635.5 744.5,635.5C 740.5,612.833 736.5,590.167 732.5,567.5 Z"/></g>
<g><path style="opacity:0.823" fill="#9ed549" d="M 527.5,569.5 C 530.81,570.446 534.144,570.613 537.5,570C 539.396,571.808 539.896,573.975 539,576.5C 534.921,577.629 530.755,577.796 526.5,577C 525.083,574.257 525.416,571.757 527.5,569.5 Z"/></g>
<g><path style="opacity:0.916" fill="#9ed549" d="M 557.5,571.5 C 560.5,571.5 563.5,571.5 566.5,571.5C 567.26,579.132 568.594,586.632 570.5,594C 584.496,594.5 598.496,594.667 612.5,594.5C 611.822,583.017 617.155,578.517 628.5,581C 631,582.167 632.833,584 634,586.5C 635.288,591.773 636.122,597.106 636.5,602.5C 612.164,602.667 587.831,602.5 563.5,602C 561.183,591.915 559.183,581.749 557.5,571.5 Z M 621.5,588.5 C 619.611,594.082 621.611,595.916 627.5,594C 627.529,589.891 625.529,588.057 621.5,588.5 Z"/></g>
<g><path style="opacity:0.893" fill="#9ed549" d="M 519.5,581.5 C 522.833,581.5 526.167,581.5 529.5,581.5C 529.292,583.92 529.626,586.253 530.5,588.5C 527.893,589.318 525.226,589.818 522.5,590C 521.483,591.049 521.316,592.216 522,593.5C 528.076,594.476 534.242,594.81 540.5,594.5C 539.725,590.186 539.059,585.853 538.5,581.5C 541.247,581.187 543.914,581.52 546.5,582.5C 547.578,588.992 549.078,595.326 551,601.5C 551.273,599.899 551.773,598.399 552.5,597C 551.185,591.923 550.185,586.756 549.5,581.5C 552.247,581.187 554.914,581.52 557.5,582.5C 560.21,590.065 560.71,597.732 559,605.5C 558.07,608.362 556.403,610.695 554,612.5C 552.167,610.167 550.333,607.833 548.5,605.5C 548.977,604.522 549.643,603.689 550.5,603C 539.403,602.956 528.403,602.289 517.5,601C 513.251,596.454 512.418,591.287 515,585.5C 516.397,583.93 517.897,582.596 519.5,581.5 Z"/></g>
<g><path style="opacity:0.933" fill="#50b1f0" d="M 358.5,586.5 C 374.096,584.935 384.263,591.602 389,606.5C 394.639,619.572 394.639,632.572 389,645.5C 385.084,651.403 379.584,654.903 372.5,656C 340.033,658.034 322.033,642.868 318.5,610.5C 324.167,610.5 329.833,610.5 335.5,610.5C 338.26,630.886 349.927,640.386 370.5,639C 372.618,638.74 374.284,637.74 375.5,636C 365.362,636.513 356.028,634.18 347.5,629C 336.241,615.122 337.241,602.122 350.5,590C 353.158,588.522 355.825,587.355 358.5,586.5 Z M 361.5,603.5 C 365.95,603.142 369.45,604.808 372,608.5C 373.372,611.618 374.538,614.784 375.5,618C 371.5,618.667 367.5,618.667 363.5,618C 355.139,614.086 354.472,609.252 361.5,603.5 Z"/></g>
<g><path style="opacity:0.934" fill="#50b1f0" d="M 412.5,586.5 C 431.009,585.491 442.175,594.158 446,612.5C 448.562,625.565 446.562,637.898 440,649.5C 438.316,651.351 436.483,653.018 434.5,654.5C 430.676,650.507 427.009,646.34 423.5,642C 425.405,640.185 427.072,638.185 428.5,636C 420.132,635.902 412.132,634.236 404.5,631C 393.887,621.52 391.72,610.353 398,597.5C 401.857,592.468 406.69,588.801 412.5,586.5 Z M 415.5,603.5 C 421.843,602.755 426.01,605.422 428,611.5C 428.977,613.74 429.477,616.073 429.5,618.5C 425.486,618.666 421.486,618.499 417.5,618C 410.379,614.102 409.712,609.269 415.5,603.5 Z"/></g>
<g><path style="opacity:0.919" fill="#50b1f0" d="M 449.5,588.5 C 455.425,588.192 461.259,588.525 467,589.5C 468.667,598.833 470.333,608.167 472,617.5C 473.673,627.75 472.006,637.417 467,646.5C 465.114,649.641 462.78,652.308 460,654.5C 455.395,650.654 451.228,646.321 447.5,641.5C 452.39,636.34 455.057,630.173 455.5,623C 453.69,611.453 451.69,599.953 449.5,588.5 Z"/></g>
<g><path style="opacity:0.843" fill="#50b1f0" d="M 520.5,671.5 C 532.121,672.068 535.621,677.735 531,688.5C 526.788,691.721 522.288,692.221 517.5,690C 511.544,682.572 512.544,676.406 520.5,671.5 Z M 521.5,677.5 C 525.648,677.453 527.148,679.453 526,683.5C 524.688,685.658 523.022,685.991 521,684.5C 520.297,682.071 520.463,679.738 521.5,677.5 Z"/></g>
<g><path style="opacity:0.842" fill="#50b1f0" d="M 334.5,672.5 C 337.247,672.187 339.914,672.52 342.5,673.5C 344.5,679.167 346.5,684.833 348.5,690.5C 346.167,691.833 343.833,691.833 341.5,690.5C 338.986,686.448 337.319,686.782 336.5,691.5C 334.167,691.5 331.833,691.5 329.5,691.5C 330.961,685.116 332.628,678.783 334.5,672.5 Z"/></g>
<g><path style="opacity:0.82" fill="#50b1f0" d="M 364.5,672.5 C 366.5,672.5 368.5,672.5 370.5,672.5C 370.5,676.833 370.5,681.167 370.5,685.5C 373.167,685.5 375.833,685.5 378.5,685.5C 378.5,687.5 378.5,689.5 378.5,691.5C 373.833,691.5 369.167,691.5 364.5,691.5C 364.5,685.167 364.5,678.833 364.5,672.5 Z"/></g>
<g><path style="opacity:0.863" fill="#50b1f0" d="M 415.5,672.5 C 420.167,672.5 424.833,672.5 429.5,672.5C 429.5,674.167 429.5,675.833 429.5,677.5C 426.813,677.336 424.146,677.503 421.5,678C 423.81,678.497 426.143,678.663 428.5,678.5C 428.5,680.5 428.5,682.5 428.5,684.5C 426.167,684.5 423.833,684.5 421.5,684.5C 421.5,686.833 421.5,689.167 421.5,691.5C 419.5,691.5 417.5,691.5 415.5,691.5C 415.5,685.167 415.5,678.833 415.5,672.5 Z"/></g>
<g><path style="opacity:0.845" fill="#50b1f0" d="M 451.5,672.5 C 454.119,672.232 456.619,672.565 459,673.5C 461.143,679.428 462.977,685.428 464.5,691.5C 462.167,691.5 459.833,691.5 457.5,691.5C 456.681,686.782 455.014,686.448 452.5,690.5C 450.257,691.474 447.924,691.808 445.5,691.5C 447.102,685.029 449.102,678.696 451.5,672.5 Z"/></g>
<g><path style="opacity:0.873" fill="#50b1f0" d="M 481.5,672.5 C 485.514,672.334 489.514,672.501 493.5,673C 496.287,675.167 497.12,678.001 496,681.5C 495.5,682.667 494.667,683.5 493.5,684C 499.36,690.31 498.36,692.643 490.5,691C 488.285,684.942 487.285,685.109 487.5,691.5C 485.5,691.5 483.5,691.5 481.5,691.5C 481.5,685.167 481.5,678.833 481.5,672.5 Z M 487.5,676.5 C 490.861,677.203 491.194,678.537 488.5,680.5C 487.571,679.311 487.238,677.978 487.5,676.5 Z"/></g>
<g><path style="opacity:0.843" fill="#50b1f0" d="M 550.5,672.5 C 552.833,672.5 555.167,672.5 557.5,672.5C 557.173,677.214 557.507,681.88 558.5,686.5C 559.086,686.291 559.586,685.957 560,685.5C 560.499,681.179 560.666,676.846 560.5,672.5C 562.5,672.5 564.5,672.5 566.5,672.5C 566.666,677.179 566.499,681.845 566,686.5C 562.196,692.377 557.529,693.044 552,688.5C 550.729,683.246 550.229,677.913 550.5,672.5 Z"/></g>
<g><path style="opacity:0.864" fill="#50b1f0" d="M 584.5,672.5 C 586.5,672.5 588.5,672.5 590.5,672.5C 590.459,676.243 591.126,676.41 592.5,673C 595.167,672.333 597.833,672.333 600.5,673C 598.602,675.388 596.935,677.888 595.5,680.5C 597.065,684.072 599.065,687.405 601.5,690.5C 596.623,692.644 593.123,691.311 591,686.5C 590.506,688.134 590.34,689.801 590.5,691.5C 588.5,691.5 586.5,691.5 584.5,691.5C 584.5,685.167 584.5,678.833 584.5,672.5 Z"/></g>
<g><path style="opacity:0.864" fill="#50b1f0" d="M 638.5,672.5 C 641.518,672.335 644.518,672.502 647.5,673C 648.574,675.456 649.574,677.956 650.5,680.5C 651.729,678.077 652.729,675.577 653.5,673C 656.482,672.502 659.482,672.335 662.5,672.5C 662.5,678.833 662.5,685.167 662.5,691.5C 660.5,691.5 658.5,691.5 656.5,691.5C 656.778,682.981 655.944,682.648 654,690.5C 648.162,693.015 645.162,691.015 645,684.5C 644.503,686.81 644.337,689.143 644.5,691.5C 642.5,691.5 640.5,691.5 638.5,691.5C 638.5,685.167 638.5,678.833 638.5,672.5 Z"/></g>
<g><path style="opacity:0.842" fill="#50b1f0" d="M 684.5,672.5 C 687.247,672.187 689.914,672.52 692.5,673.5C 694.5,679.167 696.5,684.833 698.5,690.5C 696.167,691.833 693.833,691.833 691.5,690.5C 688.986,686.448 687.319,686.782 686.5,691.5C 684.167,691.5 681.833,691.5 679.5,691.5C 680.961,685.116 682.628,678.783 684.5,672.5 Z"/></g>
<g><path style="opacity:0.856" fill="#50b1f0" d="M 714.5,672.5 C 718.846,672.334 723.179,672.501 727.5,673C 731.305,676.618 731.305,680.284 727.5,684C 729.202,686.235 730.202,688.735 730.5,691.5C 728.167,691.5 725.833,691.5 723.5,691.5C 721.523,683.823 720.523,683.823 720.5,691.5C 718.5,691.5 716.5,691.5 714.5,691.5C 714.5,685.167 714.5,678.833 714.5,672.5 Z M 720.5,676.5 C 721.5,676.5 722.5,676.5 723.5,676.5C 723.5,677.833 723.5,679.167 723.5,680.5C 722.5,680.5 721.5,680.5 720.5,680.5C 720.5,679.167 720.5,677.833 720.5,676.5 Z"/></g>
<g><path style="opacity:0.859" fill="#50b1f0" d="M 746.5,672.5 C 751.5,672.5 756.5,672.5 761.5,672.5C 761.5,674.167 761.5,675.833 761.5,677.5C 760.167,677.5 758.833,677.5 757.5,677.5C 757.5,682.167 757.5,686.833 757.5,691.5C 755.5,691.5 753.5,691.5 751.5,691.5C 751.5,686.833 751.5,682.167 751.5,677.5C 749.833,677.5 748.167,677.5 746.5,677.5C 746.5,675.833 746.5,674.167 746.5,672.5 Z"/></g>
</svg>