<?xml version="1.0" encoding="UTF-8"?>
<!DOCTYPE svg PUBLIC "-//W3C//DTD SVG 1.1//EN" "http://www.w3.org/Graphics/SVG/1.1/DTD/svg11.dtd">
<svg xmlns="http://www.w3.org/2000/svg" version="1.1" width="708px" height="352px" style="shape-rendering:geometricPrecision; text-rendering:geometricPrecision; image-rendering:optimizeQuality; fill-rule:evenodd; clip-rule:evenodd" xmlns:xlink="http://www.w3.org/1999/xlink">
<g><path style="opacity:0.169" fill="#dceffc" d="M 85.5,20.5 C 64.4341,19.4212 43.4341,19.4212 22.5,20.5C 30.1376,19.1689 38.1376,18.5022 46.5,18.5C 59.6973,18.3743 72.6973,19.041 85.5,20.5 Z"/></g>
<g><path style="opacity:1" fill="#79c2f3" d="M 85.5,20.5 C 86.5,20.5 87.5,20.5 88.5,20.5C 97.5969,22.4824 106.93,23.8158 116.5,24.5C 145.008,34.3452 162.675,54.0119 169.5,83.5C 170.768,90.0172 173.102,96.0172 176.5,101.5C 179.738,108.541 182.405,115.874 184.5,123.5C 184.77,127.358 186.103,130.691 188.5,133.5C 197.268,154.795 205.268,176.462 212.5,198.5C 213.768,205.017 216.102,211.017 219.5,216.5C 224.013,226.88 228.013,237.547 231.5,248.5C 231.345,251.716 232.345,254.383 234.5,256.5C 234.477,260.764 235.81,264.431 238.5,267.5C 244.555,282.635 250.389,297.968 256,313.5C 257.996,316.986 260.163,320.319 262.5,323.5C 281.322,324.833 300.488,325.5 320,325.5C 379.833,326.296 439.666,326.963 499.5,327.5C 525.33,328.663 551.33,328.83 577.5,328C 580.036,327.814 582.369,327.314 584.5,326.5C 585.919,325.549 587.585,325.216 589.5,325.5C 596.078,325.106 602.411,323.606 608.5,321C 610.66,320.004 612.327,318.504 613.5,316.5C 615.846,313.129 618.179,309.796 620.5,306.5C 621.75,306.423 622.583,305.756 623,304.5C 625.546,298.697 627.379,292.697 628.5,286.5C 628.924,282.988 629.924,279.655 631.5,276.5C 633.48,274.105 634.813,271.271 635.5,268C 639.146,256.898 642.479,245.732 645.5,234.5C 646.331,231.341 647.331,228.341 648.5,225.5C 653.806,212.914 658.14,199.914 661.5,186.5C 661.328,185.508 661.662,184.842 662.5,184.5C 666.592,174.486 669.925,164.152 672.5,153.5C 676.271,151.062 679.938,151.062 683.5,153.5C 685.534,155.655 685.867,157.988 684.5,160.5C 682.102,164.403 680.769,168.736 680.5,173.5C 679.204,179.05 677.537,184.383 675.5,189.5C 672.851,194.79 671.184,200.457 670.5,206.5C 670.405,208.786 669.738,210.786 668.5,212.5C 666.733,214.792 665.733,217.458 665.5,220.5C 663.943,228.168 661.609,235.501 658.5,242.5C 655.527,248.085 653.527,254.085 652.5,260.5C 650.208,268.38 647.541,276.046 644.5,283.5C 641.202,289.385 638.869,295.718 637.5,302.5C 633.058,322.109 621.058,334.276 601.5,339C 485.168,340.973 368.835,340.973 252.5,339C 249.591,337.594 247.591,335.428 246.5,332.5C 246.267,329.458 245.267,326.792 243.5,324.5C 240.932,319.475 238.932,314.141 237.5,308.5C 237.267,305.458 236.267,302.792 234.5,300.5C 233.464,294.715 231.464,289.382 228.5,284.5C 225.595,278.461 223.262,272.127 221.5,265.5C 221.267,262.458 220.267,259.792 218.5,257.5C 217.596,256.791 217.263,255.791 217.5,254.5C 216.63,249.777 214.964,245.444 212.5,241.5C 208.792,232.717 205.459,223.717 202.5,214.5C 201.602,209.466 199.935,204.799 197.5,200.5C 194.929,195.463 192.929,190.129 191.5,184.5C 191.448,181.654 190.448,179.32 188.5,177.5C 188.472,174.084 187.472,171.084 185.5,168.5C 181.402,159.883 178.069,150.883 175.5,141.5C 175.448,138.654 174.448,136.32 172.5,134.5C 171.921,129.362 170.254,124.695 167.5,120.5C 164.265,113.47 161.599,106.137 159.5,98.5C 158.071,92.8706 156.071,87.5372 153.5,82.5C 145.71,60.5438 130.71,45.7105 108.5,38C 104.786,37.6805 101.119,37.1805 97.5,36.5C 96.7375,35.7321 95.7375,35.2321 94.5,35C 87.5079,34.5004 80.5079,34.3337 73.5,34.5C 59.8224,34.5234 46.1557,34.1901 32.5,33.5C 28.1667,33.5 23.8333,33.5 19.5,33.5C 19.1209,28.7836 20.1209,24.4502 22.5,20.5C 43.4341,19.4212 64.4341,19.4212 85.5,20.5 Z"/></g>
<g><path style="opacity:0.506" fill="#bce0f9" d="M 88.5,20.5 C 95.5071,20.8339 102.507,21.3339 109.5,22C 112.104,22.3903 114.438,23.2237 116.5,24.5C 106.93,23.8158 97.5969,22.4824 88.5,20.5 Z"/></g>
<g><path style="opacity:0.069" fill="#e8f4fd" d="M 22.5,20.5 C 20.1209,24.4502 19.1209,28.7836 19.5,33.5C 23.8333,33.5 28.1667,33.5 32.5,33.5C 27.6946,34.4872 22.6946,34.8205 17.5,34.5C 17.6969,30.3776 18.5302,26.3776 20,22.5C 20.7083,21.6195 21.5416,20.9528 22.5,20.5 Z"/></g>
<g><path style="opacity:0.871" fill="#b9dff9" d="M 73.5,34.5 C 80.5079,34.3337 87.5079,34.5004 94.5,35C 95.7375,35.2321 96.7375,35.7321 97.5,36.5C 89.3247,36.1588 81.3247,35.4921 73.5,34.5 Z"/></g>
<g><path style="opacity:0.848" fill="#a1be8b" d="M 492.5,55.5 C 435.83,55.3995 379.163,55.7328 322.5,56.5C 379.151,53.0489 435.817,52.7156 492.5,55.5 Z"/></g>
<g><path style="opacity:1" fill="#5d9039" d="M 492.5,55.5 C 493.833,55.5 495.167,55.5 496.5,55.5C 498.672,65.3703 500.005,75.3703 500.5,85.5C 500.557,93.7781 499.223,101.778 496.5,109.5C 494.324,114.008 492.324,118.675 490.5,123.5C 488.75,124.659 487.75,126.326 487.5,128.5C 486.094,128.973 485.427,129.973 485.5,131.5C 483.518,134.81 481.185,137.81 478.5,140.5C 477.5,140.833 476.833,141.5 476.5,142.5C 475.5,142.833 474.833,143.5 474.5,144.5C 473.5,144.833 472.833,145.5 472.5,146.5C 469.71,150.628 466.043,153.628 461.5,155.5C 457.646,156.93 453.979,158.597 450.5,160.5C 445.015,161.327 439.348,161.827 433.5,162C 378.998,162.832 324.665,162.665 270.5,161.5C 306.835,161.667 343.168,161.5 379.5,161C 408.33,146.174 420.33,122.674 415.5,90.5C 368.826,89.0205 322.159,89.1872 275.5,91C 263.117,96.0503 253.95,104.55 248,116.5C 245.157,123.267 242.324,129.933 239.5,136.5C 239.323,132.766 239.656,129.099 240.5,125.5C 242.04,123.162 242.706,120.495 242.5,117.5C 244.74,113.902 246.074,109.902 246.5,105.5C 248.213,104.365 248.88,102.698 248.5,100.5C 249.326,97.5152 250.659,94.8485 252.5,92.5C 253.906,92.0269 254.573,91.0269 254.5,89.5C 254.328,88.5084 254.662,87.8417 255.5,87.5C 256.906,87.0269 257.573,86.0269 257.5,84.5C 259.262,83.7377 260.262,82.4044 260.5,80.5C 262.262,79.7377 263.262,78.4044 263.5,76.5C 265.167,75.5 266.5,74.1667 267.5,72.5C 268.906,72.0269 269.573,71.0269 269.5,69.5C 269.842,68.6618 270.508,68.3284 271.5,68.5C 273.027,68.573 274.027,67.9063 274.5,66.5C 276.027,66.573 277.027,65.9063 277.5,64.5C 277.842,63.6618 278.508,63.3284 279.5,63.5C 281.674,63.2503 283.341,62.2503 284.5,60.5C 287.649,60.5848 290.316,59.5848 292.5,57.5C 302.484,56.7865 312.484,56.4532 322.5,56.5C 379.163,55.7328 435.83,55.3995 492.5,55.5 Z"/></g>
<g><path style="opacity:0.863" fill="#b4cba2" d="M 292.5,57.5 C 290.316,59.5848 287.649,60.5848 284.5,60.5C 286.684,58.4152 289.351,57.4152 292.5,57.5 Z"/></g>
<g><path style="opacity:0.149" fill="#d9e5d1" d="M 284.5,60.5 C 283.341,62.2503 281.674,63.2503 279.5,63.5C 280.659,61.7497 282.326,60.7497 284.5,60.5 Z"/></g>
<g><path style="opacity:0.529" fill="#c5d7b8" d="M 277.5,64.5 C 277.027,65.9063 276.027,66.573 274.5,66.5C 274.973,65.0937 275.973,64.427 277.5,64.5 Z"/></g>
<g><path style="opacity:0.686" fill="#b2caa0" d="M 274.5,66.5 C 274.027,67.9063 273.027,68.573 271.5,68.5C 271.973,67.0937 272.973,66.427 274.5,66.5 Z"/></g>
<g><path style="opacity:0.737" fill="#b2cba1" d="M 269.5,69.5 C 269.573,71.0269 268.906,72.0269 267.5,72.5C 267.427,70.9731 268.094,69.9731 269.5,69.5 Z"/></g>
<g><path style="opacity:0.298" fill="#dbe6d2" d="M 267.5,72.5 C 266.5,74.1667 265.167,75.5 263.5,76.5C 263.833,74.1667 265.167,72.8333 267.5,72.5 Z"/></g>
<g><path style="opacity:0.549" fill="#ccdcc1" d="M 263.5,76.5 C 263.262,78.4044 262.262,79.7377 260.5,80.5C 260.738,78.5956 261.738,77.2623 263.5,76.5 Z"/></g>
<g><path style="opacity:0.412" fill="#cddcc1" d="M 260.5,80.5 C 260.262,82.4044 259.262,83.7377 257.5,84.5C 257.738,82.5956 258.738,81.2623 260.5,80.5 Z"/></g>
<g><path style="opacity:0.875" fill="#c1e2f9" d="M 169.5,83.5 C 172.6,89.1211 174.933,95.1211 176.5,101.5C 173.102,96.0172 170.768,90.0172 169.5,83.5 Z"/></g>
<g><path style="opacity:0.208" fill="#dae6d2" d="M 257.5,84.5 C 257.573,86.0269 256.906,87.0269 255.5,87.5C 255.427,85.9731 256.094,84.9731 257.5,84.5 Z"/></g>
<g><path style="opacity:1" fill="#9dd349" d="M 270.5,161.5 C 267.167,161.5 263.833,161.5 260.5,161.5C 254.601,160.795 248.601,160.128 242.5,159.5C 240.672,156.865 239.505,153.865 239,150.5C 238.185,145.648 238.352,140.981 239.5,136.5C 242.324,129.933 245.157,123.267 248,116.5C 253.95,104.55 263.117,96.0503 275.5,91C 322.159,89.1872 368.826,89.0205 415.5,90.5C 420.33,122.674 408.33,146.174 379.5,161C 343.168,161.5 306.835,161.667 270.5,161.5 Z"/></g>
<g><path style="opacity:0.282" fill="#cee9fa" d="M 153.5,82.5 C 156.071,87.5372 158.071,92.8706 159.5,98.5C 156.536,93.6183 154.536,88.285 153.5,82.5 Z"/></g>
<g><path style="opacity:0.235" fill="#d7e3ce" d="M 254.5,89.5 C 254.573,91.0269 253.906,92.0269 252.5,92.5C 252.427,90.9731 253.094,89.9731 254.5,89.5 Z"/></g>
<g><path style="opacity:0.824" fill="#b8cea8" d="M 248.5,100.5 C 248.88,102.698 248.213,104.365 246.5,105.5C 246.402,103.447 247.069,101.78 248.5,100.5 Z"/></g>
<g><path style="opacity:0.635" fill="#cfdec4" d="M 246.5,105.5 C 246.074,109.902 244.74,113.902 242.5,117.5C 242.926,113.098 244.26,109.098 246.5,105.5 Z"/></g>
<g><path style="opacity:0.58" fill="#d5e2cb" d="M 242.5,117.5 C 242.706,120.495 242.04,123.162 240.5,125.5C 240.294,122.505 240.96,119.838 242.5,117.5 Z"/></g>
<g><path style="opacity:0.086" fill="#e4ecde" d="M 496.5,109.5 C 495.843,114.824 493.843,119.49 490.5,123.5C 492.324,118.675 494.324,114.008 496.5,109.5 Z"/></g>
<g><path style="opacity:0.227" fill="#d4e2ca" d="M 490.5,123.5 C 490.25,125.674 489.25,127.341 487.5,128.5C 487.75,126.326 488.75,124.659 490.5,123.5 Z"/></g>
<g><path style="opacity:0.243" fill="#d7ecfb" d="M 167.5,120.5 C 170.254,124.695 171.921,129.362 172.5,134.5C 170.313,130.105 168.646,125.438 167.5,120.5 Z"/></g>
<g><path style="opacity:0.863" fill="#bbdff9" d="M 184.5,123.5 C 186.4,126.518 187.733,129.851 188.5,133.5C 186.103,130.691 184.77,127.358 184.5,123.5 Z"/></g>
<g><path style="opacity:0.129" fill="#dae5d1" d="M 487.5,128.5 C 487.573,130.027 486.906,131.027 485.5,131.5C 485.427,129.973 486.094,128.973 487.5,128.5 Z"/></g>
<g><path style="opacity:0.435" fill="#c8e6fa" d="M 172.5,134.5 C 174.448,136.32 175.448,138.654 175.5,141.5C 173.935,139.491 172.935,137.157 172.5,134.5 Z"/></g>
<g><path style="opacity:0.008" fill="#ecf2e8" d="M 478.5,140.5 C 478.5,141.833 477.833,142.5 476.5,142.5C 476.833,141.5 477.5,140.833 478.5,140.5 Z"/></g>
<g><path style="opacity:0.004" fill="#e9f0e4" d="M 476.5,142.5 C 476.5,143.833 475.833,144.5 474.5,144.5C 474.833,143.5 475.5,142.833 476.5,142.5 Z"/></g>
<g><path style="opacity:0.004" fill="#e8f0e3" d="M 474.5,144.5 C 474.5,145.833 473.833,146.5 472.5,146.5C 472.833,145.5 473.5,144.833 474.5,144.5 Z"/></g>
<g><path style="opacity:0.043" fill="#cfe9fa" d="M 683.5,153.5 C 679.938,151.062 676.271,151.062 672.5,153.5C 673.607,151.069 675.607,150.069 678.5,150.5C 679.833,150.667 681.167,150.833 682.5,151C 683.252,151.671 683.586,152.504 683.5,153.5 Z"/></g>
<g><path style="opacity:0.212" fill="#d9e5d0" d="M 461.5,155.5 C 458.503,158.496 454.836,160.163 450.5,160.5C 453.979,158.597 457.646,156.93 461.5,155.5 Z"/></g>
<g><path style="opacity:0.831" fill="#bce183" d="M 242.5,159.5 C 248.601,160.128 254.601,160.795 260.5,161.5C 254.074,162.12 248.074,161.453 242.5,159.5 Z"/></g>
<g><path style="opacity:0.62" fill="#c1e2f9" d="M 684.5,160.5 C 683.922,165.165 682.589,169.499 680.5,173.5C 680.769,168.736 682.102,164.403 684.5,160.5 Z"/></g>
<g><path style="opacity:0.443" fill="#cee8fa" d="M 185.5,168.5 C 187.472,171.084 188.472,174.084 188.5,177.5C 186.928,174.785 185.928,171.785 185.5,168.5 Z"/></g>
<g><path style="opacity:0.702" fill="#c6e4fa" d="M 672.5,153.5 C 669.925,164.152 666.592,174.486 662.5,184.5C 664.768,173.741 668.101,163.408 672.5,153.5 Z"/></g>
<g><path style="opacity:0.551" fill="#cde9a2" d="M 243.5,180.5 C 292.67,180.168 341.67,180.501 390.5,181.5C 341.833,181.5 293.167,181.5 244.5,181.5C 244.101,185.011 243.434,188.344 242.5,191.5C 242.5,190.833 242.5,190.167 242.5,189.5C 242.19,186.287 242.523,183.287 243.5,180.5 Z"/></g>
<g><path style="opacity:0.148" fill="#f0f9e4" d="M 243.5,180.5 C 330.504,179.334 417.504,179.668 504.5,181.5C 488.833,181.5 473.167,181.5 457.5,181.5C 435.167,181.5 412.833,181.5 390.5,181.5C 341.67,180.501 292.67,180.168 243.5,180.5 Z"/></g>
<g><path style="opacity:1" fill="#a1d64e" d="M 390.5,181.5 C 412.833,181.5 435.167,181.5 457.5,181.5C 481.02,182.206 504.686,182.873 528.5,183.5C 530.102,185.074 532.102,185.741 534.5,185.5C 537.686,186.597 540.686,187.93 543.5,189.5C 545.181,191.008 547.181,192.008 549.5,192.5C 549.973,193.906 550.973,194.573 552.5,194.5C 553.492,194.328 554.158,194.662 554.5,195.5C 555.035,197.446 556.368,198.446 558.5,198.5C 564.055,201.383 568.722,205.383 572.5,210.5C 573.08,212.749 574.413,214.415 576.5,215.5C 576.738,217.404 577.738,218.738 579.5,219.5C 579.738,221.404 580.738,222.738 582.5,223.5C 582.427,225.027 583.094,226.027 584.5,226.5C 586.731,229.836 588.397,233.503 589.5,237.5C 589.12,239.698 589.787,241.365 591.5,242.5C 591.5,242.833 591.5,243.167 591.5,243.5C 591.41,246.152 592.076,248.485 593.5,250.5C 594.434,251.568 594.768,252.901 594.5,254.5C 594.198,258.79 594.864,262.79 596.5,266.5C 597.833,270.5 597.833,274.5 596.5,278.5C 595.094,278.973 594.427,279.973 594.5,281.5C 593.415,283.587 591.749,284.92 589.5,285.5C 587.214,285.595 585.214,286.262 583.5,287.5C 561.833,287.5 540.167,287.5 518.5,287.5C 451.816,287.974 385.149,287.141 318.5,285C 312.732,284.691 307.065,283.858 301.5,282.5C 297.937,281.718 294.603,280.384 291.5,278.5C 291.027,277.094 290.027,276.427 288.5,276.5C 286.181,276.008 284.181,275.008 282.5,273.5C 282.027,272.094 281.027,271.427 279.5,271.5C 279.027,270.094 278.027,269.427 276.5,269.5C 275.738,267.738 274.404,266.738 272.5,266.5C 271.5,266.167 270.833,265.5 270.5,264.5C 269.738,262.738 268.404,261.738 266.5,261.5C 264.167,259.833 262.167,257.833 260.5,255.5C 259.864,253.205 258.531,251.539 256.5,250.5C 255.662,250.158 255.328,249.492 255.5,248.5C 255.446,246.368 254.446,245.035 252.5,244.5C 251.326,243.486 250.66,242.153 250.5,240.5C 250.598,238.447 249.931,236.78 248.5,235.5C 243.881,221.215 241.881,206.549 242.5,191.5C 243.434,188.344 244.101,185.011 244.5,181.5C 293.167,181.5 341.833,181.5 390.5,181.5 Z"/></g>
<g><path style="opacity:0.534" fill="#c9e79a" d="M 457.5,181.5 C 473.167,181.5 488.833,181.5 504.5,181.5C 511.508,181.334 518.508,181.5 525.5,182C 526.737,182.232 527.737,182.732 528.5,183.5C 504.686,182.873 481.02,182.206 457.5,181.5 Z"/></g>
<g><path style="opacity:0.435" fill="#c8e5fa" d="M 188.5,177.5 C 190.448,179.32 191.448,181.654 191.5,184.5C 189.935,182.491 188.935,180.157 188.5,177.5 Z"/></g>
<g><path style="opacity:0.549" fill="#d9eeb7" d="M 528.5,183.5 C 530.786,183.595 532.786,184.262 534.5,185.5C 532.102,185.741 530.102,185.074 528.5,183.5 Z"/></g>
<g><path style="opacity:0.761" fill="#c9e6fa" d="M 661.5,186.5 C 658.14,199.914 653.806,212.914 648.5,225.5C 652.261,212.216 656.595,199.216 661.5,186.5 Z"/></g>
<g><path style="opacity:0.141" fill="#ecf6dc" d="M 543.5,189.5 C 546.089,189.461 548.089,190.461 549.5,192.5C 547.181,192.008 545.181,191.008 543.5,189.5 Z"/></g>
<g><path style="opacity:0.027" fill="#d3ebfb" d="M 675.5,189.5 C 674.408,195.433 672.741,201.1 670.5,206.5C 671.184,200.457 672.851,194.79 675.5,189.5 Z"/></g>
<g><path style="opacity:0.173" fill="#e8f5d3" d="M 549.5,192.5 C 551.027,192.427 552.027,193.094 552.5,194.5C 550.973,194.573 549.973,193.906 549.5,192.5 Z"/></g>
<g><path style="opacity:0.824" fill="#d3ebab" d="M 554.5,195.5 C 556.23,196.026 557.564,197.026 558.5,198.5C 556.368,198.446 555.035,197.446 554.5,195.5 Z"/></g>
<g><path style="opacity:0.871" fill="#c4e4f9" d="M 212.5,198.5 C 215.6,204.121 217.933,210.121 219.5,216.5C 216.102,211.017 213.768,205.017 212.5,198.5 Z"/></g>
<g><path style="opacity:0.004" fill="#dbeefc" d="M 197.5,200.5 C 199.935,204.799 201.602,209.466 202.5,214.5C 200.06,210.183 198.393,205.517 197.5,200.5 Z"/></g>
<g><path style="opacity:0.843" fill="#d4ebac" d="M 572.5,210.5 C 574.587,211.585 575.92,213.251 576.5,215.5C 574.413,214.415 573.08,212.749 572.5,210.5 Z"/></g>
<g><path style="opacity:0.108" fill="#ecf6db" d="M 242.5,189.5 C 242.5,190.167 242.5,190.833 242.5,191.5C 241.881,206.549 243.881,221.215 248.5,235.5C 243.328,224.537 240.995,212.871 241.5,200.5C 241.501,196.651 241.835,192.984 242.5,189.5 Z"/></g>
<g><path style="opacity:0.427" fill="#cce7fa" d="M 668.5,212.5 C 668.267,215.542 667.267,218.208 665.5,220.5C 665.733,217.458 666.733,214.792 668.5,212.5 Z"/></g>
<g><path style="opacity:0.804" fill="#cfeaa5" d="M 576.5,215.5 C 578.262,216.262 579.262,217.596 579.5,219.5C 577.738,218.738 576.738,217.404 576.5,215.5 Z"/></g>
<g><path style="opacity:0.592" fill="#d7edb2" d="M 579.5,219.5 C 581.262,220.262 582.262,221.596 582.5,223.5C 580.738,222.738 579.738,221.404 579.5,219.5 Z"/></g>
<g><path style="opacity:0.153" fill="#eff7e0" d="M 582.5,223.5 C 583.906,223.973 584.573,224.973 584.5,226.5C 583.094,226.027 582.427,225.027 582.5,223.5 Z"/></g>
<g><path style="opacity:0.31" fill="#e4f3cb" d="M 248.5,235.5 C 249.931,236.78 250.598,238.447 250.5,240.5C 249.069,239.22 248.402,237.553 248.5,235.5 Z"/></g>
<g><path style="opacity:0.82" fill="#d4ecac" d="M 589.5,237.5 C 590.537,238.93 591.204,240.597 591.5,242.5C 589.787,241.365 589.12,239.698 589.5,237.5 Z"/></g>
<g><path style="opacity:0.851" fill="#d6ecb0" d="M 252.5,244.5 C 254.446,245.035 255.446,246.368 255.5,248.5C 254.026,247.564 253.026,246.23 252.5,244.5 Z"/></g>
<g><path style="opacity:0.467" fill="#cae6fa" d="M 658.5,242.5 C 657.072,248.784 655.072,254.784 652.5,260.5C 653.527,254.085 655.527,248.085 658.5,242.5 Z"/></g>
<g><path style="opacity:0.216" fill="#d6ecfb" d="M 212.5,241.5 C 214.964,245.444 216.63,249.777 217.5,254.5C 215.036,250.556 213.37,246.223 212.5,241.5 Z"/></g>
<g><path style="opacity:0.584" fill="#d6edb1" d="M 591.5,243.5 C 592.924,245.515 593.59,247.848 593.5,250.5C 592.076,248.485 591.41,246.152 591.5,243.5 Z"/></g>
<g><path style="opacity:0.682" fill="#cae6fa" d="M 231.5,248.5 C 232.871,250.936 233.871,253.603 234.5,256.5C 232.345,254.383 231.345,251.716 231.5,248.5 Z"/></g>
<g><path style="opacity:0.482" fill="#e0f1c3" d="M 256.5,250.5 C 258.531,251.539 259.864,253.205 260.5,255.5C 258.457,254.421 257.124,252.754 256.5,250.5 Z"/></g>
<g><path style="opacity:0.839" fill="#c6e4fa" d="M 234.5,256.5 C 236.208,259.95 237.541,263.617 238.5,267.5C 235.81,264.431 234.477,260.764 234.5,256.5 Z"/></g>
<g><path style="opacity:0.667" fill="#dcefbc" d="M 266.5,261.5 C 268.404,261.738 269.738,262.738 270.5,264.5C 268.596,264.262 267.262,263.262 266.5,261.5 Z"/></g>
<g><path style="opacity:0.341" fill="#d2eafa" d="M 218.5,257.5 C 220.267,259.792 221.267,262.458 221.5,265.5C 219.733,263.208 218.733,260.542 218.5,257.5 Z"/></g>
<g><path style="opacity:0.424" fill="#daefba" d="M 594.5,254.5 C 596.136,258.21 596.802,262.21 596.5,266.5C 594.864,262.79 594.198,258.79 594.5,254.5 Z"/></g>
<g><path style="opacity:0.678" fill="#dcefba" d="M 272.5,266.5 C 274.404,266.738 275.738,267.738 276.5,269.5C 274.596,269.262 273.262,268.262 272.5,266.5 Z"/></g>
<g><path style="opacity:0.824" fill="#c0e1f9" d="M 645.5,234.5 C 642.479,245.732 639.146,256.898 635.5,268C 634.813,271.271 633.48,274.105 631.5,276.5C 635.595,262.216 640.261,248.216 645.5,234.5 Z"/></g>
<g><path style="opacity:0.325" fill="#e2f3c9" d="M 276.5,269.5 C 278.027,269.427 279.027,270.094 279.5,271.5C 277.973,271.573 276.973,270.906 276.5,269.5 Z"/></g>
<g><path style="opacity:0.196" fill="#ebf6d9" d="M 279.5,271.5 C 281.027,271.427 282.027,272.094 282.5,273.5C 280.973,273.573 279.973,272.906 279.5,271.5 Z"/></g>
<g><path style="opacity:0.102" fill="#f1f9e4" d="M 288.5,276.5 C 290.027,276.427 291.027,277.094 291.5,278.5C 289.973,278.573 288.973,277.906 288.5,276.5 Z"/></g>
<g><path style="opacity:0.02" fill="#f1f8e3" d="M 596.5,278.5 C 596.573,280.027 595.906,281.027 594.5,281.5C 594.427,279.973 595.094,278.973 596.5,278.5 Z"/></g>
<g><path style="opacity:0.702" fill="#d1eba9" d="M 301.5,282.5 C 307.065,283.858 312.732,284.691 318.5,285C 385.149,287.141 451.816,287.974 518.5,287.5C 488.005,288.498 457.338,288.831 426.5,288.5C 388.816,288.511 351.149,287.677 313.5,286C 309.132,285.707 305.132,284.54 301.5,282.5 Z"/></g>
<g><path style="opacity:0.063" fill="#e8f5d4" d="M 589.5,285.5 C 587.898,287.074 585.898,287.741 583.5,287.5C 585.214,286.262 587.214,285.595 589.5,285.5 Z"/></g>
<g><path style="opacity:0.086" fill="#f2f9e6" d="M 518.5,287.5 C 540.167,287.5 561.833,287.5 583.5,287.5C 531.174,289.494 478.841,289.827 426.5,288.5C 457.338,288.831 488.005,288.498 518.5,287.5 Z"/></g>
<g><path style="opacity:0.251" fill="#d3ebfb" d="M 644.5,283.5 C 642.738,290.127 640.405,296.461 637.5,302.5C 638.869,295.718 641.202,289.385 644.5,283.5 Z"/></g>
<g><path style="opacity:0.255" fill="#d6ecfb" d="M 228.5,284.5 C 231.464,289.382 233.464,294.715 234.5,300.5C 231.929,295.463 229.929,290.129 228.5,284.5 Z"/></g>
<g><path style="opacity:0.529" fill="#c3e3f9" d="M 628.5,286.5 C 627.379,292.697 625.546,298.697 623,304.5C 622.583,305.756 621.75,306.423 620.5,306.5C 622.991,299.678 625.658,293.011 628.5,286.5 Z"/></g>
<g><path style="opacity:0.337" fill="#d2eafb" d="M 234.5,300.5 C 236.267,302.792 237.267,305.458 237.5,308.5C 235.733,306.208 234.733,303.542 234.5,300.5 Z"/></g>
<g><path style="opacity:0.761" fill="#c2e3f9" d="M 613.5,316.5 C 612.327,318.504 610.66,320.004 608.5,321C 602.411,323.606 596.078,325.106 589.5,325.5C 597.919,323.693 605.919,320.693 613.5,316.5 Z"/></g>
<g><path style="opacity:0.119" fill="#e1f1fc" d="M 262.5,323.5 C 351.335,324.425 440.001,325.758 528.5,327.5C 518.833,327.5 509.167,327.5 499.5,327.5C 439.666,326.963 379.833,326.296 320,325.5C 300.488,325.5 281.322,324.833 262.5,323.5 Z"/></g>
<g><path style="opacity:0.194" fill="#cce8fa" d="M 584.5,326.5 C 582.369,327.314 580.036,327.814 577.5,328C 551.33,328.83 525.33,328.663 499.5,327.5C 509.167,327.5 518.833,327.5 528.5,327.5C 547.183,327.722 565.85,327.389 584.5,326.5 Z"/></g>
<g><path style="opacity:0.349" fill="#d0e9fb" d="M 243.5,324.5 C 245.267,326.792 246.267,329.458 246.5,332.5C 244.733,330.208 243.733,327.542 243.5,324.5 Z"/></g>
</svg>
