<?xml version="1.0" encoding="UTF-8"?>
<!DOCTYPE svg PUBLIC "-//W3C//DTD SVG 1.1//EN" "http://www.w3.org/Graphics/SVG/1.1/DTD/svg11.dtd">
<svg xmlns="http://www.w3.org/2000/svg" version="1.1" width="1080px" height="1080px" style="shape-rendering:geometricPrecision; text-rendering:geometricPrecision; image-rendering:optimizeQuality; fill-rule:evenodd; clip-rule:evenodd" xmlns:xlink="http://www.w3.org/1999/xlink">
<g><path style="opacity:0.813" fill="#50b1f0" d="M 378.5,381.5 C 391.171,381.333 403.838,381.5 416.5,382C 427.265,384.463 435.098,390.63 440,400.5C 453.863,437.089 467.53,473.756 481,510.5C 481.833,511.333 482.667,512.167 483.5,513C 531.833,513.667 580.167,513.667 628.5,513C 634.061,510.438 637.894,506.272 640,500.5C 646.533,479.734 653.366,459.067 660.5,438.5C 663.474,436.822 665.141,437.655 665.5,441C 658.662,464.513 650.829,487.68 642,510.5C 639.408,513.762 636.241,516.262 632.5,518C 581.545,519.648 530.545,519.982 479.5,519C 477.396,517.307 475.896,515.14 475,512.5C 462.278,477.391 449.278,442.391 436,407.5C 432.624,396.789 425.457,390.289 414.5,388C 402.505,387.5 390.505,387.333 378.5,387.5C 378.5,385.5 378.5,383.5 378.5,381.5 Z"/></g>
<g><path style="opacity:0.963" fill="#52892c" d="M 532.5,442.5 C 545.573,436.525 551.24,426.358 549.5,412C 529.167,411.333 508.833,411.333 488.5,412C 485.098,413.4 482.264,415.567 480,418.5C 477.26,422.647 475.093,426.98 473.5,431.5C 474.341,414.854 482.341,403.354 497.5,397C 526.5,396.333 555.5,396.333 584.5,397C 588.27,413.031 583.937,426.698 571.5,438C 568.833,439.333 566.167,440.667 563.5,442C 553.172,442.5 542.839,442.666 532.5,442.5 Z"/></g>
<g><path style="opacity:1" fill="#9dd349" d="M 532.5,442.5 C 513.497,442.667 494.497,442.5 475.5,442C 472.695,438.94 472.028,435.44 473.5,431.5C 475.093,426.98 477.26,422.647 480,418.5C 482.264,415.567 485.098,413.4 488.5,412C 508.833,411.333 529.167,411.333 549.5,412C 551.24,426.358 545.573,436.525 532.5,442.5 Z"/></g>
<g><path style="opacity:0.98" fill="#9ed549" d="M 475.5,450.5 C 516.548,450.023 557.548,450.523 598.5,452C 617.865,459.036 627.365,472.869 627,493.5C 626.097,494.701 624.931,495.535 623.5,496C 582.787,496.977 542.12,496.644 501.5,495C 484.33,488.841 474.664,476.675 472.5,458.5C 472.9,455.534 473.9,452.868 475.5,450.5 Z"/></g>
<g><path style="opacity:0.889" fill="#fefffe" d="M 350.5,558.5 C 353.675,558.503 356.508,559.503 359,561.5C 366.987,557.212 372.154,559.378 374.5,568C 371.79,576.512 366.456,578.679 358.5,574.5C 347.807,578.412 342.974,574.745 344,563.5C 345.805,561.174 347.972,559.508 350.5,558.5 Z"/></g>
<g><path style="opacity:0.877" fill="#fefffe" d="M 681.5,559.5 C 693.713,558.985 697.046,564.152 691.5,575C 683.775,578.303 678.775,575.97 676.5,568C 677.123,564.546 678.789,561.713 681.5,559.5 Z"/></g>
<g><path style="opacity:0.95" fill="#fefffe" d="M 466.5,562.5 C 472.5,562.5 478.5,562.5 484.5,562.5C 487.185,579.088 490.185,595.588 493.5,612C 551.499,612.5 609.499,612.667 667.5,612.5C 665.355,593.746 673.522,583.079 692,580.5C 710.305,583.436 718.139,594.103 715.5,612.5C 717.924,612.808 720.257,612.474 722.5,611.5C 719.372,595.192 716.372,578.858 713.5,562.5C 719.5,562.5 725.5,562.5 731.5,562.5C 735.372,585.191 739.372,607.858 743.5,630.5C 732.813,630.48 722.146,629.98 711.5,629C 710.274,627.365 708.941,625.865 707.5,624.5C 702.796,628.186 697.463,630.186 691.5,630.5C 620.828,629.586 549.828,629.586 478.5,630.5C 474.5,607.833 470.5,585.167 466.5,562.5 Z M 622.5,582.5 C 626.697,582.194 628.697,584.194 628.5,588.5C 622.591,589.926 620.591,587.926 622.5,582.5 Z M 690.5,597.5 C 698.529,599.134 700.696,603.468 697,610.5C 688.378,614.53 684.378,611.863 685,602.5C 686.352,600.251 688.185,598.584 690.5,597.5 Z"/></g>
<g><path style="opacity:0.926" fill="#fefffe" d="M 735.5,562.5 C 741.5,562.5 747.5,562.5 753.5,562.5C 757.685,585.089 761.351,607.756 764.5,630.5C 758.833,630.5 753.167,630.5 747.5,630.5C 743.5,607.833 739.5,585.167 735.5,562.5 Z"/></g>
<g><path style="opacity:0.827" fill="#9dd54c" d="M 527.5,563.5 C 531.127,564.358 534.794,564.524 538.5,564C 539.591,566.064 539.758,568.231 539,570.5C 534.931,570.468 530.764,570.635 526.5,571C 525.083,568.257 525.416,565.757 527.5,563.5 Z"/></g>
<g><path style="opacity:0.921" fill="#9dd54c" d="M 558.5,565.5 C 561.5,565.5 564.5,565.5 567.5,565.5C 568.402,572.913 569.736,580.247 571.5,587.5C 585.484,588.499 599.484,588.833 613.5,588.5C 613.786,575.349 620.119,571.183 632.5,576C 633.211,577.255 634.044,578.421 635,579.5C 636.061,584.867 637.227,590.2 638.5,595.5C 613.84,596.666 589.173,596.833 564.5,596C 562.341,585.885 560.341,575.719 558.5,565.5 Z M 622.5,582.5 C 620.591,587.926 622.591,589.926 628.5,588.5C 628.697,584.194 626.697,582.194 622.5,582.5 Z"/></g>
<g><path style="opacity:0.892" fill="#9dd54c" d="M 523.5,574.5 C 525.5,574.5 527.5,574.5 529.5,574.5C 529.508,577.545 529.841,580.545 530.5,583.5C 527.813,583.336 525.146,583.503 522.5,584C 521.167,585.333 521.167,586.667 522.5,588C 528.491,588.499 534.491,588.666 540.5,588.5C 540.05,583.798 539.383,579.132 538.5,574.5C 541.448,574.223 544.281,574.556 547,575.5C 548.363,582.478 549.529,589.478 550.5,596.5C 539.397,596.954 528.397,596.454 517.5,595C 512.167,589 512.167,583 517.5,577C 519.611,576.155 521.611,575.322 523.5,574.5 Z"/></g>
<g><path style="opacity:0.853" fill="#9dd54c" d="M 550.5,574.5 C 553.247,574.187 555.914,574.52 558.5,575.5C 560.574,582.366 561.408,589.366 561,596.5C 560.019,600.464 558.019,603.797 555,606.5C 553.167,604.167 551.333,601.833 549.5,599.5C 551.361,597.112 552.694,594.446 553.5,591.5C 552.177,585.894 551.177,580.227 550.5,574.5 Z"/></g>
<g><path style="opacity:0.935" fill="#fefffe" d="M 359.5,580.5 C 369.462,579.865 377.295,583.532 383,591.5C 390.588,604.19 393.255,617.857 391,632.5C 386.873,646.267 377.54,652.6 363,651.5C 339.298,651.142 324.298,639.475 318,616.5C 316.892,612.914 316.392,609.247 316.5,605.5C 322.167,605.5 327.833,605.5 333.5,605.5C 337.231,628.182 350.231,637.182 372.5,632.5C 372.833,632.167 373.167,631.833 373.5,631.5C 367.515,630.577 361.515,629.744 355.5,629C 341.518,623.543 336.018,613.376 339,598.5C 342.605,588.723 349.439,582.723 359.5,580.5 Z M 361.5,597.5 C 369.035,599.527 373.035,604.527 373.5,612.5C 368.821,612.666 364.155,612.499 359.5,612C 355.876,609.839 354.709,606.672 356,602.5C 357.352,600.251 359.185,598.584 361.5,597.5 Z"/></g>
<g><path style="opacity:0.927" fill="#fefffe" d="M 414.5,580.5 C 429.437,580.263 439.27,587.263 444,601.5C 448.59,616.953 446.923,631.62 439,645.5C 437.333,647.167 435.667,648.833 434,650.5C 429.286,646.175 425.952,641.175 424,635.5C 425.529,634.271 426.696,632.771 427.5,631C 400.809,631.666 390.309,619.166 396,593.5C 400.278,586.293 406.445,581.96 414.5,580.5 Z M 417.5,597.5 C 424.589,599.931 428.256,604.931 428.5,612.5C 423.821,612.666 419.155,612.499 414.5,612C 408.577,605.699 409.577,600.866 417.5,597.5 Z"/></g>
<g><path style="opacity:0.93" fill="#fefffe" d="M 448.5,583.5 C 454.5,583.5 460.5,583.5 466.5,583.5C 467.675,592.543 469.175,601.543 471,610.5C 473.806,625.957 469.806,639.29 459,650.5C 454.277,646.28 450.11,641.613 446.5,636.5C 451.495,631.192 454.161,624.859 454.5,617.5C 452.713,606.11 450.713,594.777 448.5,583.5 Z"/></g>
<g><path style="opacity:0.822" fill="#9ed549" d="M 333.5,667.5 C 335.924,667.192 338.257,667.526 340.5,668.5C 342.908,674.724 344.908,681.057 346.5,687.5C 342.403,688.103 339.236,686.769 337,683.5C 334.98,684.032 334.147,685.365 334.5,687.5C 332.167,687.5 329.833,687.5 327.5,687.5C 328.896,680.645 330.896,673.978 333.5,667.5 Z"/></g>
<g><path style="opacity:0.829" fill="#9ed549" d="M 363.5,667.5 C 365.5,667.5 367.5,667.5 369.5,667.5C 369.5,672.167 369.5,676.833 369.5,681.5C 371.833,681.5 374.167,681.5 376.5,681.5C 376.5,683.5 376.5,685.5 376.5,687.5C 372.167,687.5 367.833,687.5 363.5,687.5C 363.5,680.833 363.5,674.167 363.5,667.5 Z"/></g>
<g><path style="opacity:0.812" fill="#9ed549" d="M 414.5,667.5 C 419.5,667.5 424.5,667.5 429.5,667.5C 429.5,669.5 429.5,671.5 429.5,673.5C 426.482,673.335 423.482,673.502 420.5,674C 422.81,674.497 425.143,674.663 427.5,674.5C 427.5,676.5 427.5,678.5 427.5,680.5C 425.167,680.5 422.833,680.5 420.5,680.5C 420.5,682.833 420.5,685.167 420.5,687.5C 418.5,687.5 416.5,687.5 414.5,687.5C 414.5,680.833 414.5,674.167 414.5,667.5 Z"/></g>
<g><path style="opacity:0.822" fill="#9ed549" d="M 450.5,667.5 C 453.167,667.5 455.833,667.5 458.5,667.5C 460.092,673.943 462.092,680.276 464.5,686.5C 462.235,687.647 459.902,687.814 457.5,687C 456.663,685.989 456.33,684.822 456.5,683.5C 455.167,683.5 453.833,683.5 452.5,683.5C 452.5,684.833 452.5,686.167 452.5,687.5C 449.813,687.664 447.146,687.497 444.5,687C 446.886,680.625 448.886,674.125 450.5,667.5 Z"/></g>
<g><path style="opacity:0.796" fill="#9ed549" d="M 480.5,667.5 C 485.267,667.191 489.934,667.691 494.5,669C 497.429,673.062 497.096,676.728 493.5,680C 495.017,682.204 496.35,684.538 497.5,687C 492.661,688.716 489.494,687.216 488,682.5C 487.506,684.134 487.34,685.801 487.5,687.5C 485.167,687.5 482.833,687.5 480.5,687.5C 480.5,680.833 480.5,674.167 480.5,667.5 Z M 487.5,672.5 C 491.123,673.411 491.29,674.745 488,676.5C 487.51,675.207 487.343,673.873 487.5,672.5 Z"/></g>
<g><path style="opacity:0.844" fill="#9ed549" d="M 519.5,667.5 C 529.988,666.487 534.488,671.154 533,681.5C 530.367,686.732 526.201,688.565 520.5,687C 513.537,683.1 512.037,677.6 516,670.5C 517.518,669.837 518.685,668.837 519.5,667.5 Z M 521.5,673.5 C 523.144,673.286 524.644,673.62 526,674.5C 526.758,676.769 526.591,678.936 525.5,681C 524.056,681.781 522.723,681.614 521.5,680.5C 520.328,678.177 520.328,675.844 521.5,673.5 Z"/></g>
<g><path style="opacity:0.836" fill="#9ed549" d="M 551.5,667.5 C 553.5,667.5 555.5,667.5 557.5,667.5C 557.334,672.179 557.501,676.845 558,681.5C 558.414,681.957 558.914,682.291 559.5,682.5C 560.494,677.544 560.827,672.544 560.5,667.5C 562.5,667.5 564.5,667.5 566.5,667.5C 566.666,673.176 566.499,678.843 566,684.5C 562.205,687.803 558.038,688.303 553.5,686C 552.874,685.25 552.374,684.416 552,683.5C 551.501,678.177 551.334,672.844 551.5,667.5 Z"/></g>
<g><path style="opacity:0.838" fill="#9ed549" d="M 585.5,667.5 C 587.5,667.5 589.5,667.5 591.5,667.5C 591.343,668.873 591.51,670.207 592,671.5C 594.106,667.542 597.273,666.542 601.5,668.5C 599.797,671.191 598.13,673.857 596.5,676.5C 598.485,679.795 600.485,683.129 602.5,686.5C 597.623,688.644 594.123,687.311 592,682.5C 591.506,684.134 591.34,685.801 591.5,687.5C 589.5,687.5 587.5,687.5 585.5,687.5C 585.5,680.833 585.5,674.167 585.5,667.5 Z"/></g>
<g><path style="opacity:0.814" fill="#9ed549" d="M 639.5,667.5 C 642.833,667.5 646.167,667.5 649.5,667.5C 650.016,670.899 650.85,674.232 652,677.5C 653.092,674.291 654.259,671.124 655.5,668C 658.482,667.502 661.482,667.335 664.5,667.5C 664.5,674.167 664.5,680.833 664.5,687.5C 662.5,687.5 660.5,687.5 658.5,687.5C 658.919,677.565 657.919,677.232 655.5,686.5C 653.257,687.474 650.924,687.808 648.5,687.5C 647.218,679.627 646.551,679.627 646.5,687.5C 644.167,687.5 641.833,687.5 639.5,687.5C 639.5,680.833 639.5,674.167 639.5,667.5 Z"/></g>
<g><path style="opacity:0.822" fill="#9ed549" d="M 687.5,667.5 C 689.924,667.192 692.257,667.526 694.5,668.5C 696.908,674.724 698.908,681.057 700.5,687.5C 696.403,688.103 693.236,686.769 691,683.5C 688.98,684.032 688.147,685.365 688.5,687.5C 686.167,687.5 683.833,687.5 681.5,687.5C 682.896,680.645 684.896,673.978 687.5,667.5 Z"/></g>
<g><path style="opacity:0.85" fill="#9ed549" d="M 717.5,667.5 C 720.85,667.335 724.183,667.502 727.5,668C 729.329,668.273 730.829,669.107 732,670.5C 732.966,674.118 732.466,677.451 730.5,680.5C 731.5,682.5 732.5,684.5 733.5,686.5C 728.968,688.304 725.802,686.971 724,682.5C 723.506,684.134 723.34,685.801 723.5,687.5C 721.5,687.5 719.5,687.5 717.5,687.5C 717.5,680.833 717.5,674.167 717.5,667.5 Z M 723.5,672.5 C 724.5,672.5 725.5,672.5 726.5,672.5C 726.778,674.346 726.111,675.68 724.5,676.5C 723.571,675.311 723.238,673.978 723.5,672.5 Z"/></g>
<g><path style="opacity:0.774" fill="#9ed549" d="M 749.5,667.5 C 754.5,667.5 759.5,667.5 764.5,667.5C 764.5,669.5 764.5,671.5 764.5,673.5C 763.167,673.5 761.833,673.5 760.5,673.5C 760.5,678.167 760.5,682.833 760.5,687.5C 758.167,687.5 755.833,687.5 753.5,687.5C 753.5,682.833 753.5,678.167 753.5,673.5C 752.167,673.5 750.833,673.5 749.5,673.5C 749.5,671.5 749.5,669.5 749.5,667.5 Z"/></g>
</svg>
