<?xml version="1.0" encoding="UTF-8"?>
<!DOCTYPE svg PUBLIC "-//W3C//DTD SVG 1.1//EN" "http://www.w3.org/Graphics/SVG/1.1/DTD/svg11.dtd">
<svg xmlns="http://www.w3.org/2000/svg" version="1.1" width="474px" height="157px" style="shape-rendering:geometricPrecision; text-rendering:geometricPrecision; image-rendering:optimizeQuality; fill-rule:evenodd; clip-rule:evenodd" xmlns:xlink="http://www.w3.org/1999/xlink">
<g><path style="opacity:0.893" fill="#50b1f0" d="M 47.5,13.5 C 51.3058,13.02 54.6391,14.02 57.5,16.5C 60.8894,14.5105 64.556,14.0105 68.5,15C 72.6127,18.5094 73.446,22.6761 71,27.5C 66.6968,32.4243 62.0301,32.7576 57,28.5C 45.7438,33.206 41.0771,29.5393 43,17.5C 44.3968,15.9297 45.8968,14.5964 47.5,13.5 Z"/></g>
<g><path style="opacity:0.872" fill="#50b1f0" d="M 376.5,14.5 C 386.856,13.2502 390.69,17.5835 388,27.5C 383,32.8333 378,32.8333 373,27.5C 370.676,22.1667 371.843,17.8334 376.5,14.5 Z"/></g>
<g><path style="opacity:0.943" fill="#50b1f0" d="M 163.5,16.5 C 169.5,16.5 175.5,16.5 181.5,16.5C 184.167,33.1693 186.834,49.836 189.5,66.5C 247.167,66.5 304.833,66.5 362.5,66.5C 360.102,47.916 368.102,37.5826 386.5,35.5C 404.94,37.5481 412.607,47.7147 409.5,66C 411.902,66.8141 414.235,66.6474 416.5,65.5C 413.177,49.2275 410.177,32.8941 407.5,16.5C 413.5,16.5 419.5,16.5 425.5,16.5C 429.384,39.1355 433.05,61.8022 436.5,84.5C 426.115,84.6146 415.782,83.948 405.5,82.5C 404.5,81.1667 403.5,79.8333 402.5,78.5C 397.525,81.9912 392.025,83.9912 386,84.5C 316.19,83.585 246.024,83.585 175.5,84.5C 171.5,61.8333 167.5,39.1667 163.5,16.5 Z M 318.5,37.5 C 322.529,37.0573 324.529,38.8906 324.5,43C 318.611,44.9156 316.611,43.0823 318.5,37.5 Z M 383.5,52.5 C 392.052,52.5426 394.885,56.5426 392,64.5C 385.539,68.7321 381.039,67.0655 378.5,59.5C 379.466,56.5314 381.133,54.198 383.5,52.5 Z"/></g>
<g><path style="opacity:0.915" fill="#50b1f0" d="M 429.5,16.5 C 435.5,16.5 441.5,16.5 447.5,16.5C 451.384,39.1355 455.05,61.8022 458.5,84.5C 452.833,84.5 447.167,84.5 441.5,84.5C 437.5,61.8333 433.5,39.1667 429.5,16.5 Z"/></g>
<g><path style="opacity:0.823" fill="#9ed549" d="M 224.5,18.5 C 227.81,19.4462 231.144,19.6129 234.5,19C 236.396,20.8083 236.896,22.975 236,25.5C 231.921,26.6295 227.755,26.7961 223.5,26C 222.083,23.2565 222.416,20.7565 224.5,18.5 Z"/></g>
<g><path style="opacity:0.916" fill="#9ed549" d="M 254.5,20.5 C 257.5,20.5 260.5,20.5 263.5,20.5C 264.26,28.1321 265.594,35.6321 267.5,43C 281.496,43.4999 295.496,43.6666 309.5,43.5C 308.822,32.0169 314.155,27.5169 325.5,30C 328,31.1667 329.833,33 331,35.5C 332.288,40.7726 333.122,46.106 333.5,51.5C 309.164,51.6666 284.831,51.5 260.5,51C 258.183,40.9155 256.183,30.7488 254.5,20.5 Z M 318.5,37.5 C 316.611,43.0823 318.611,44.9156 324.5,43C 324.529,38.8906 322.529,37.0573 318.5,37.5 Z"/></g>
<g><path style="opacity:0.893" fill="#9ed549" d="M 216.5,30.5 C 219.833,30.5 223.167,30.5 226.5,30.5C 226.292,32.9201 226.626,35.2534 227.5,37.5C 224.893,38.3184 222.226,38.8184 219.5,39C 218.483,40.0495 218.316,41.2161 219,42.5C 225.076,43.4764 231.242,43.8097 237.5,43.5C 236.725,39.186 236.059,34.8526 235.5,30.5C 238.247,30.1866 240.914,30.52 243.5,31.5C 244.578,37.9922 246.078,44.3255 248,50.5C 248.273,48.8988 248.773,47.3988 249.5,46C 248.185,40.9228 247.185,35.7562 246.5,30.5C 249.247,30.1866 251.914,30.52 254.5,31.5C 257.21,39.0654 257.71,46.732 256,54.5C 255.07,57.3616 253.403,59.695 251,61.5C 249.167,59.1667 247.333,56.8333 245.5,54.5C 245.977,53.5224 246.643,52.6891 247.5,52C 236.403,51.9555 225.403,51.2889 214.5,50C 210.251,45.4537 209.418,40.2871 212,34.5C 213.397,32.9297 214.897,31.5964 216.5,30.5 Z"/></g>
<g><path style="opacity:0.933" fill="#50b1f0" d="M 55.5,35.5 C 71.0962,33.9354 81.2629,40.602 86,55.5C 91.6388,68.572 91.6388,81.572 86,94.5C 82.0841,100.403 76.5841,103.903 69.5,105C 37.0327,107.034 19.0327,91.8677 15.5,59.5C 21.1667,59.5 26.8333,59.5 32.5,59.5C 35.2604,79.8857 46.927,89.3857 67.5,88C 69.6175,87.7398 71.2842,86.7398 72.5,85C 62.3615,85.5131 53.0282,83.1798 44.5,78C 33.2414,64.1223 34.2414,51.1223 47.5,39C 50.1579,37.522 52.8245,36.3554 55.5,35.5 Z M 58.5,52.5 C 62.9503,52.1416 66.4503,53.8083 69,57.5C 70.3717,60.6175 71.5384,63.7842 72.5,67C 68.5,67.6667 64.5,67.6667 60.5,67C 52.1391,63.0855 51.4725,58.2522 58.5,52.5 Z"/></g>
<g><path style="opacity:0.934" fill="#50b1f0" d="M 109.5,35.5 C 128.009,34.4913 139.175,43.158 143,61.5C 145.562,74.5646 143.562,86.898 137,98.5C 135.316,100.351 133.483,102.018 131.5,103.5C 127.676,99.5071 124.009,95.3404 120.5,91C 122.405,89.1847 124.072,87.1847 125.5,85C 117.132,84.9024 109.132,83.2357 101.5,80C 90.8866,70.52 88.7199,59.3533 95,46.5C 98.8568,41.4678 103.69,37.8011 109.5,35.5 Z M 112.5,52.5 C 118.843,51.7553 123.01,54.422 125,60.5C 125.977,62.74 126.477,65.0733 126.5,67.5C 122.486,67.6655 118.486,67.4988 114.5,67C 107.379,63.1024 106.712,58.269 112.5,52.5 Z"/></g>
<g><path style="opacity:0.919" fill="#50b1f0" d="M 146.5,37.5 C 152.425,37.1918 158.259,37.5251 164,38.5C 165.667,47.8333 167.333,57.1667 169,66.5C 170.673,76.7505 169.006,86.4172 164,95.5C 162.114,98.6413 159.78,101.308 157,103.5C 152.395,99.654 148.228,95.3207 144.5,90.5C 149.39,85.3397 152.057,79.173 152.5,72C 150.69,60.4533 148.69,48.9533 146.5,37.5 Z"/></g>
<g><path style="opacity:0.843" fill="#50b1f0" d="M 217.5,120.5 C 229.121,121.068 232.621,126.735 228,137.5C 223.788,140.721 219.288,141.221 214.5,139C 208.544,131.572 209.544,125.406 217.5,120.5 Z M 218.5,126.5 C 222.648,126.453 224.148,128.453 223,132.5C 221.688,134.658 220.022,134.991 218,133.5C 217.297,131.071 217.463,128.738 218.5,126.5 Z"/></g>
<g><path style="opacity:0.842" fill="#50b1f0" d="M 31.5,121.5 C 34.2469,121.187 36.9135,121.52 39.5,122.5C 41.5,128.167 43.5,133.833 45.5,139.5C 43.1667,140.833 40.8333,140.833 38.5,139.5C 35.9855,135.448 34.3189,135.782 33.5,140.5C 31.1667,140.5 28.8333,140.5 26.5,140.5C 27.9609,134.116 29.6276,127.783 31.5,121.5 Z"/></g>
<g><path style="opacity:0.82" fill="#50b1f0" d="M 61.5,121.5 C 63.5,121.5 65.5,121.5 67.5,121.5C 67.5,125.833 67.5,130.167 67.5,134.5C 70.1667,134.5 72.8333,134.5 75.5,134.5C 75.5,136.5 75.5,138.5 75.5,140.5C 70.8333,140.5 66.1667,140.5 61.5,140.5C 61.5,134.167 61.5,127.833 61.5,121.5 Z"/></g>
<g><path style="opacity:0.863" fill="#50b1f0" d="M 112.5,121.5 C 117.167,121.5 121.833,121.5 126.5,121.5C 126.5,123.167 126.5,124.833 126.5,126.5C 123.813,126.336 121.146,126.503 118.5,127C 120.81,127.497 123.143,127.663 125.5,127.5C 125.5,129.5 125.5,131.5 125.5,133.5C 123.167,133.5 120.833,133.5 118.5,133.5C 118.5,135.833 118.5,138.167 118.5,140.5C 116.5,140.5 114.5,140.5 112.5,140.5C 112.5,134.167 112.5,127.833 112.5,121.5 Z"/></g>
<g><path style="opacity:0.845" fill="#50b1f0" d="M 148.5,121.5 C 151.119,121.232 153.619,121.565 156,122.5C 158.143,128.428 159.977,134.428 161.5,140.5C 159.167,140.5 156.833,140.5 154.5,140.5C 153.681,135.782 152.014,135.448 149.5,139.5C 147.257,140.474 144.924,140.808 142.5,140.5C 144.102,134.029 146.102,127.696 148.5,121.5 Z"/></g>
<g><path style="opacity:0.873" fill="#50b1f0" d="M 178.5,121.5 C 182.514,121.334 186.514,121.501 190.5,122C 193.287,124.167 194.12,127.001 193,130.5C 192.5,131.667 191.667,132.5 190.5,133C 196.36,139.31 195.36,141.643 187.5,140C 185.285,133.942 184.285,134.109 184.5,140.5C 182.5,140.5 180.5,140.5 178.5,140.5C 178.5,134.167 178.5,127.833 178.5,121.5 Z M 184.5,125.5 C 187.861,126.203 188.194,127.537 185.5,129.5C 184.571,128.311 184.238,126.978 184.5,125.5 Z"/></g>
<g><path style="opacity:0.843" fill="#50b1f0" d="M 247.5,121.5 C 249.833,121.5 252.167,121.5 254.5,121.5C 254.173,126.214 254.507,130.88 255.5,135.5C 256.086,135.291 256.586,134.957 257,134.5C 257.499,130.179 257.666,125.846 257.5,121.5C 259.5,121.5 261.5,121.5 263.5,121.5C 263.666,126.179 263.499,130.845 263,135.5C 259.196,141.377 254.529,142.044 249,137.5C 247.729,132.246 247.229,126.913 247.5,121.5 Z"/></g>
<g><path style="opacity:0.864" fill="#50b1f0" d="M 281.5,121.5 C 283.5,121.5 285.5,121.5 287.5,121.5C 287.459,125.243 288.126,125.41 289.5,122C 292.167,121.333 294.833,121.333 297.5,122C 295.602,124.388 293.935,126.888 292.5,129.5C 294.065,133.072 296.065,136.405 298.5,139.5C 293.623,141.644 290.123,140.311 288,135.5C 287.506,137.134 287.34,138.801 287.5,140.5C 285.5,140.5 283.5,140.5 281.5,140.5C 281.5,134.167 281.5,127.833 281.5,121.5 Z"/></g>
<g><path style="opacity:0.864" fill="#50b1f0" d="M 335.5,121.5 C 338.518,121.335 341.518,121.502 344.5,122C 345.574,124.456 346.574,126.956 347.5,129.5C 348.729,127.077 349.729,124.577 350.5,122C 353.482,121.502 356.482,121.335 359.5,121.5C 359.5,127.833 359.5,134.167 359.5,140.5C 357.5,140.5 355.5,140.5 353.5,140.5C 353.778,131.981 352.944,131.648 351,139.5C 345.162,142.015 342.162,140.015 342,133.5C 341.503,135.81 341.337,138.143 341.5,140.5C 339.5,140.5 337.5,140.5 335.5,140.5C 335.5,134.167 335.5,127.833 335.5,121.5 Z"/></g>
<g><path style="opacity:0.842" fill="#50b1f0" d="M 381.5,121.5 C 384.247,121.187 386.914,121.52 389.5,122.5C 391.5,128.167 393.5,133.833 395.5,139.5C 393.167,140.833 390.833,140.833 388.5,139.5C 385.986,135.448 384.319,135.782 383.5,140.5C 381.167,140.5 378.833,140.5 376.5,140.5C 377.961,134.116 379.628,127.783 381.5,121.5 Z"/></g>
<g><path style="opacity:0.856" fill="#50b1f0" d="M 411.5,121.5 C 415.846,121.334 420.179,121.501 424.5,122C 428.305,125.618 428.305,129.284 424.5,133C 426.202,135.235 427.202,137.735 427.5,140.5C 425.167,140.5 422.833,140.5 420.5,140.5C 418.523,132.823 417.523,132.823 417.5,140.5C 415.5,140.5 413.5,140.5 411.5,140.5C 411.5,134.167 411.5,127.833 411.5,121.5 Z M 417.5,125.5 C 418.5,125.5 419.5,125.5 420.5,125.5C 420.5,126.833 420.5,128.167 420.5,129.5C 419.5,129.5 418.5,129.5 417.5,129.5C 417.5,128.167 417.5,126.833 417.5,125.5 Z"/></g>
<g><path style="opacity:0.859" fill="#50b1f0" d="M 443.5,121.5 C 448.5,121.5 453.5,121.5 458.5,121.5C 458.5,123.167 458.5,124.833 458.5,126.5C 457.167,126.5 455.833,126.5 454.5,126.5C 454.5,131.167 454.5,135.833 454.5,140.5C 452.5,140.5 450.5,140.5 448.5,140.5C 448.5,135.833 448.5,131.167 448.5,126.5C 446.833,126.5 445.167,126.5 443.5,126.5C 443.5,124.833 443.5,123.167 443.5,121.5 Z"/></g>
</svg>
