<?xml version="1.0" encoding="UTF-8"?>
<!DOCTYPE svg PUBLIC "-//W3C//DTD SVG 1.1//EN" "http://www.w3.org/Graphics/SVG/1.1/DTD/svg11.dtd">
<svg xmlns="http://www.w3.org/2000/svg" version="1.1" width="316px" height="165px" style="shape-rendering:geometricPrecision; text-rendering:geometricPrecision; image-rendering:optimizeQuality; fill-rule:evenodd; clip-rule:evenodd" xmlns:xlink="http://www.w3.org/1999/xlink">
<g><path style="opacity:0.818" fill="#50b1f0" d="M 16.5,13.5 C 28.8756,13.1569 41.2089,13.6569 53.5,15C 65.1324,17.9638 72.9657,25.1305 77,36.5C 89.6667,70.5 102.333,104.5 115,138.5C 115.792,140.587 116.959,142.421 118.5,144C 160.338,144.234 202.172,144.734 244,145.5C 251.787,146.005 259.287,144.838 266.5,142C 269.531,139.441 271.698,136.274 273,132.5C 279.834,111.828 286.668,91.1609 293.5,70.5C 296.474,68.822 298.141,69.6553 298.5,73C 291.799,95.7708 284.299,118.271 276,140.5C 272.822,145.509 268.322,148.676 262.5,150C 213.167,150.667 163.833,150.667 114.5,150C 112.741,148.992 111.574,147.492 111,145.5C 98,110.5 85,75.5 72,40.5C 68.8072,30.6405 62.3072,24.1405 52.5,21C 39.8798,19.6264 27.2131,19.1264 14.5,19.5C 14.2587,17.1137 14.9254,15.1137 16.5,13.5 Z"/></g>
<g><path style="opacity:0.948" fill="#52892c" d="M 167.5,74.5 C 180.311,68.3821 185.644,58.2155 183.5,44C 163.833,43.3333 144.167,43.3333 124.5,44C 121.241,45.2106 118.408,47.0439 116,49.5C 112.63,54.1398 110.13,59.1398 108.5,64.5C 109.433,53.1371 113.766,43.3038 121.5,35C 124.339,33.0797 127.339,31.4131 130.5,30C 159.46,28.3745 188.46,28.0412 217.5,29C 222.589,44.9309 218.589,58.5976 205.5,70C 203.112,71.8605 200.446,73.1939 197.5,74C 187.506,74.4998 177.506,74.6665 167.5,74.5 Z"/></g>
<g><path style="opacity:1" fill="#9dd349" d="M 167.5,74.5 C 148.497,74.6666 129.497,74.4999 110.5,74C 108.66,71.1737 107.994,68.0071 108.5,64.5C 110.13,59.1398 112.63,54.1398 116,49.5C 118.408,47.0439 121.241,45.2106 124.5,44C 144.167,43.3333 163.833,43.3333 183.5,44C 185.644,58.2155 180.311,68.3821 167.5,74.5 Z"/></g>
<g><path style="opacity:0.973" fill="#9ed549" d="M 110.5,82.5 C 150.168,82.3333 189.835,82.5 229.5,83C 249.725,88.9545 260.225,102.455 261,123.5C 259.29,126.896 256.457,128.396 252.5,128C 214.486,128.875 176.486,128.542 138.5,127C 116.357,119.779 107.024,104.946 110.5,82.5 Z"/></g>
</svg>
